<svg width="16" height="16" viewBox="0 0 16 16" fill="none" xmlns="http://www.w3.org/2000/svg">
    <path fill-rule="evenodd" clip-rule="evenodd" d="M13.9 12.2a2.503 2.503 0 0 0 .05-1.2h1.45a.6.6 0 1 1 0 1.2h-1.5zm-4.8 0H.6a.6.6 0 1 1 0-1.2h8.45a2.512 2.512 0 0 0 .05 1.2z" fill="#4353FF"/>
    <path fill-rule="evenodd" clip-rule="evenodd" d="M11.5 12.8a1.3 1.3 0 1 0 0-2.6 1.3 1.3 0 0 0 0 2.6zm0 1.2a2.5 2.5 0 1 0 0-5 2.5 2.5 0 0 0 0 5zM7.9 5.2A2.501 2.501 0 0 0 7.95 4h7.45a.6.6 0 1 1 0 1.2H7.9zm-4.8 0H.6A.6.6 0 0 1 .6 4h2.45a2.512 2.512 0 0 0 .05 1.2z" fill="#4353FF"/>
    <path fill-rule="evenodd" clip-rule="evenodd" d="M5.5 5.8a1.3 1.3 0 1 0 0-2.6 1.3 1.3 0 0 0 0 2.6zm0 1.2a2.5 2.5 0 1 0 0-5 2.5 2.5 0 0 0 0 5z" fill="#4353FF"/>
</svg>
